# xmcd
#
# Track frame offsets:
#	300
#	13425
#	32625
#	50775
#	66600
#	82050
#	102825
#	117975
#	136275
#	156075
#	176100
#	189900
#	207300
#	225975
#	242250
#	259200
#
# Disc length: 3476 seconds
#
# Revision: 0
# Processed by: cddbd v1.5.2PL0 Copyright (c) Steve Scherf et al.
# Submitted via: audiograbber 1.83.01
#
DISCID=e40d9010
DTITLE=Various Artist - Big Country
DYEAR=1900
DGENRE=
TTITLE0=Toby Keith - Big Blue Note
TTITLE1=Faith Hill - Like We Never Loved At All
TTITLE2=Shania Twain - Shoes
TTITLE3=Big and Rich - Comin' To Your City\\
TTITLE4=Alan Jackson - USA Today
TTITLE5=Keith Urban - Better Life
TTITLE6=Terri Clark - She Didn't Have Time
TTITLE7=Gary Allen - Best I Ever Had
TTITLE8=Rascal Flatts - Skin (Sarabeth)
TTITLE9=Dierks Bentley - Come A Little Closer
TTITLE10=Joe Nichols - Tequila Makes Her Clothes Fall Off
TTITLE11=Billy Currington - Must Be Doin' Somethin' Right
TTITLE12=Josh Gracin - Stay With Me (Brass Bed)
TTITLE13=Neil McCoy - Billy's Got His Beer Goggles On
TTITLE14=Randy Travis - Angels
TTITLE15=Extra - Extra
EXTD=
EXTT0=
EXTT1=
EXTT2=
EXTT3=
EXTT4=
EXTT5=
EXTT6=
EXTT7=
EXTT8=
EXTT9=
EXTT10=
EXTT11=
EXTT12=
EXTT13=
EXTT14=
EXTT15=
PLAYORDER=
